<mxfile host="app.diagrams.net" modified="2023-02-08T16:50:21.373Z" agent="5.0 (X11; Linux x86_64) AppleWebKit/537.36 (KHTML, like Gecko) Chrome/109.0.0.0 Safari/537.36" etag="ftf7O6pe-bgKlPOrV3cr" version="20.8.17" type="github">
  <diagram id="C5RBs43oDa-KdzZeNtuy" name="Page-1">
    <mxGraphModel dx="814" dy="418" grid="1" gridSize="10" guides="1" tooltips="1" connect="1" arrows="1" fold="1" page="1" pageScale="1" pageWidth="827" pageHeight="1169" math="0" shadow="0">
      <root>
        <mxCell id="WIyWlLk6GJQsqaUBKTNV-0" />
        <mxCell id="WIyWlLk6GJQsqaUBKTNV-1" parent="WIyWlLk6GJQsqaUBKTNV-0" />
        <mxCell id="91gzh17UgcEjRoILe-eJ-5" value="" style="edgeStyle=orthogonalEdgeStyle;rounded=0;orthogonalLoop=1;jettySize=auto;html=1;" edge="1" parent="WIyWlLk6GJQsqaUBKTNV-1" source="91gzh17UgcEjRoILe-eJ-2" target="91gzh17UgcEjRoILe-eJ-4">
          <mxGeometry relative="1" as="geometry" />
        </mxCell>
        <mxCell id="91gzh17UgcEjRoILe-eJ-34" style="edgeStyle=orthogonalEdgeStyle;rounded=0;orthogonalLoop=1;jettySize=auto;html=1;entryX=0;entryY=0.5;entryDx=0;entryDy=0;" edge="1" parent="WIyWlLk6GJQsqaUBKTNV-1" source="91gzh17UgcEjRoILe-eJ-2" target="91gzh17UgcEjRoILe-eJ-19">
          <mxGeometry relative="1" as="geometry" />
        </mxCell>
        <mxCell id="91gzh17UgcEjRoILe-eJ-2" value="void_multiple_tables&lt;br&gt;(int n)" style="whiteSpace=wrap;html=1;" vertex="1" parent="WIyWlLk6GJQsqaUBKTNV-1">
          <mxGeometry x="330" y="20" width="120" height="60" as="geometry" />
        </mxCell>
        <mxCell id="91gzh17UgcEjRoILe-eJ-7" value="" style="edgeStyle=orthogonalEdgeStyle;rounded=0;orthogonalLoop=1;jettySize=auto;html=1;" edge="1" parent="WIyWlLk6GJQsqaUBKTNV-1" source="91gzh17UgcEjRoILe-eJ-4" target="91gzh17UgcEjRoILe-eJ-6">
          <mxGeometry relative="1" as="geometry" />
        </mxCell>
        <mxCell id="91gzh17UgcEjRoILe-eJ-4" value="start" style="ellipse;whiteSpace=wrap;html=1;" vertex="1" parent="WIyWlLk6GJQsqaUBKTNV-1">
          <mxGeometry x="360" y="120" width="80" height="60" as="geometry" />
        </mxCell>
        <mxCell id="91gzh17UgcEjRoILe-eJ-9" value="" style="edgeStyle=orthogonalEdgeStyle;rounded=0;orthogonalLoop=1;jettySize=auto;html=1;" edge="1" parent="WIyWlLk6GJQsqaUBKTNV-1" source="91gzh17UgcEjRoILe-eJ-6" target="91gzh17UgcEjRoILe-eJ-8">
          <mxGeometry relative="1" as="geometry" />
        </mxCell>
        <mxCell id="91gzh17UgcEjRoILe-eJ-6" value="int n,m;" style="whiteSpace=wrap;html=1;" vertex="1" parent="WIyWlLk6GJQsqaUBKTNV-1">
          <mxGeometry x="340" y="230" width="120" height="60" as="geometry" />
        </mxCell>
        <mxCell id="91gzh17UgcEjRoILe-eJ-11" value="" style="edgeStyle=orthogonalEdgeStyle;rounded=0;orthogonalLoop=1;jettySize=auto;html=1;" edge="1" parent="WIyWlLk6GJQsqaUBKTNV-1" source="91gzh17UgcEjRoILe-eJ-8" target="91gzh17UgcEjRoILe-eJ-10">
          <mxGeometry relative="1" as="geometry" />
        </mxCell>
        <mxCell id="91gzh17UgcEjRoILe-eJ-13" value="" style="edgeStyle=orthogonalEdgeStyle;rounded=0;orthogonalLoop=1;jettySize=auto;html=1;" edge="1" parent="WIyWlLk6GJQsqaUBKTNV-1" source="91gzh17UgcEjRoILe-eJ-8" target="91gzh17UgcEjRoILe-eJ-12">
          <mxGeometry relative="1" as="geometry">
            <Array as="points">
              <mxPoint x="500" y="380" />
            </Array>
          </mxGeometry>
        </mxCell>
        <mxCell id="91gzh17UgcEjRoILe-eJ-8" value="n &amp;lt;= m" style="rhombus;whiteSpace=wrap;html=1;" vertex="1" parent="WIyWlLk6GJQsqaUBKTNV-1">
          <mxGeometry x="360" y="340" width="80" height="80" as="geometry" />
        </mxCell>
        <mxCell id="91gzh17UgcEjRoILe-eJ-10" value="end" style="ellipse;whiteSpace=wrap;html=1;" vertex="1" parent="WIyWlLk6GJQsqaUBKTNV-1">
          <mxGeometry x="230" y="345" width="80" height="70" as="geometry" />
        </mxCell>
        <mxCell id="91gzh17UgcEjRoILe-eJ-16" value="" style="edgeStyle=orthogonalEdgeStyle;rounded=0;orthogonalLoop=1;jettySize=auto;html=1;" edge="1" parent="WIyWlLk6GJQsqaUBKTNV-1" source="91gzh17UgcEjRoILe-eJ-12" target="91gzh17UgcEjRoILe-eJ-15">
          <mxGeometry relative="1" as="geometry">
            <Array as="points">
              <mxPoint x="490" y="520" />
              <mxPoint x="410" y="520" />
              <mxPoint x="410" y="495" />
            </Array>
          </mxGeometry>
        </mxCell>
        <mxCell id="91gzh17UgcEjRoILe-eJ-12" value="printf n * m" style="shape=parallelogram;perimeter=parallelogramPerimeter;whiteSpace=wrap;html=1;fixedSize=1;" vertex="1" parent="WIyWlLk6GJQsqaUBKTNV-1">
          <mxGeometry x="430" y="420" width="120" height="60" as="geometry" />
        </mxCell>
        <mxCell id="91gzh17UgcEjRoILe-eJ-17" style="edgeStyle=orthogonalEdgeStyle;rounded=0;orthogonalLoop=1;jettySize=auto;html=1;" edge="1" parent="WIyWlLk6GJQsqaUBKTNV-1" source="91gzh17UgcEjRoILe-eJ-15" target="91gzh17UgcEjRoILe-eJ-8">
          <mxGeometry relative="1" as="geometry" />
        </mxCell>
        <mxCell id="91gzh17UgcEjRoILe-eJ-15" value="i++" style="whiteSpace=wrap;html=1;" vertex="1" parent="WIyWlLk6GJQsqaUBKTNV-1">
          <mxGeometry x="310" y="470" width="90" height="50" as="geometry" />
        </mxCell>
        <mxCell id="91gzh17UgcEjRoILe-eJ-20" value="" style="edgeStyle=orthogonalEdgeStyle;rounded=0;orthogonalLoop=1;jettySize=auto;html=1;" edge="1" parent="WIyWlLk6GJQsqaUBKTNV-1" source="91gzh17UgcEjRoILe-eJ-18" target="91gzh17UgcEjRoILe-eJ-19">
          <mxGeometry relative="1" as="geometry" />
        </mxCell>
        <mxCell id="91gzh17UgcEjRoILe-eJ-18" value="start" style="ellipse;whiteSpace=wrap;html=1;" vertex="1" parent="WIyWlLk6GJQsqaUBKTNV-1">
          <mxGeometry x="690" width="120" height="80" as="geometry" />
        </mxCell>
        <mxCell id="91gzh17UgcEjRoILe-eJ-23" value="" style="edgeStyle=orthogonalEdgeStyle;rounded=0;orthogonalLoop=1;jettySize=auto;html=1;" edge="1" parent="WIyWlLk6GJQsqaUBKTNV-1" source="91gzh17UgcEjRoILe-eJ-19" target="91gzh17UgcEjRoILe-eJ-22">
          <mxGeometry relative="1" as="geometry" />
        </mxCell>
        <mxCell id="91gzh17UgcEjRoILe-eJ-19" value="int i, n, m" style="whiteSpace=wrap;html=1;" vertex="1" parent="WIyWlLk6GJQsqaUBKTNV-1">
          <mxGeometry x="690" y="130" width="120" height="60" as="geometry" />
        </mxCell>
        <mxCell id="91gzh17UgcEjRoILe-eJ-25" value="" style="edgeStyle=orthogonalEdgeStyle;rounded=0;orthogonalLoop=1;jettySize=auto;html=1;" edge="1" parent="WIyWlLk6GJQsqaUBKTNV-1" source="91gzh17UgcEjRoILe-eJ-22" target="91gzh17UgcEjRoILe-eJ-24">
          <mxGeometry relative="1" as="geometry" />
        </mxCell>
        <mxCell id="91gzh17UgcEjRoILe-eJ-22" value="scanf(&quot;%d&quot; &amp;amp;m" style="shape=parallelogram;perimeter=parallelogramPerimeter;whiteSpace=wrap;html=1;fixedSize=1;" vertex="1" parent="WIyWlLk6GJQsqaUBKTNV-1">
          <mxGeometry x="690" y="240" width="120" height="60" as="geometry" />
        </mxCell>
        <mxCell id="91gzh17UgcEjRoILe-eJ-27" value="" style="edgeStyle=orthogonalEdgeStyle;rounded=0;orthogonalLoop=1;jettySize=auto;html=1;" edge="1" parent="WIyWlLk6GJQsqaUBKTNV-1" source="91gzh17UgcEjRoILe-eJ-24" target="91gzh17UgcEjRoILe-eJ-26">
          <mxGeometry relative="1" as="geometry" />
        </mxCell>
        <mxCell id="91gzh17UgcEjRoILe-eJ-29" value="" style="edgeStyle=orthogonalEdgeStyle;rounded=0;orthogonalLoop=1;jettySize=auto;html=1;exitX=0;exitY=0.5;exitDx=0;exitDy=0;" edge="1" parent="WIyWlLk6GJQsqaUBKTNV-1" source="91gzh17UgcEjRoILe-eJ-24" target="91gzh17UgcEjRoILe-eJ-28">
          <mxGeometry relative="1" as="geometry" />
        </mxCell>
        <mxCell id="91gzh17UgcEjRoILe-eJ-24" value="i &amp;lt;= m" style="rhombus;whiteSpace=wrap;html=1;" vertex="1" parent="WIyWlLk6GJQsqaUBKTNV-1">
          <mxGeometry x="710" y="370" width="80" height="80" as="geometry" />
        </mxCell>
        <mxCell id="91gzh17UgcEjRoILe-eJ-26" value="end" style="ellipse;whiteSpace=wrap;html=1;" vertex="1" parent="WIyWlLk6GJQsqaUBKTNV-1">
          <mxGeometry x="820" y="375" width="80" height="70" as="geometry" />
        </mxCell>
        <mxCell id="91gzh17UgcEjRoILe-eJ-32" value="" style="edgeStyle=orthogonalEdgeStyle;rounded=0;orthogonalLoop=1;jettySize=auto;html=1;" edge="1" parent="WIyWlLk6GJQsqaUBKTNV-1" source="91gzh17UgcEjRoILe-eJ-28" target="91gzh17UgcEjRoILe-eJ-31">
          <mxGeometry relative="1" as="geometry" />
        </mxCell>
        <mxCell id="91gzh17UgcEjRoILe-eJ-28" value="void_multiple_tables&lt;br&gt;(int n)" style="whiteSpace=wrap;html=1;" vertex="1" parent="WIyWlLk6GJQsqaUBKTNV-1">
          <mxGeometry x="600" y="540" width="120" height="60" as="geometry" />
        </mxCell>
        <mxCell id="91gzh17UgcEjRoILe-eJ-33" style="edgeStyle=orthogonalEdgeStyle;rounded=0;orthogonalLoop=1;jettySize=auto;html=1;" edge="1" parent="WIyWlLk6GJQsqaUBKTNV-1" source="91gzh17UgcEjRoILe-eJ-31" target="91gzh17UgcEjRoILe-eJ-24">
          <mxGeometry relative="1" as="geometry" />
        </mxCell>
        <mxCell id="91gzh17UgcEjRoILe-eJ-31" value="i++" style="whiteSpace=wrap;html=1;" vertex="1" parent="WIyWlLk6GJQsqaUBKTNV-1">
          <mxGeometry x="767" y="510" width="60" height="55" as="geometry" />
        </mxCell>
      </root>
    </mxGraphModel>
  </diagram>
</mxfile>
